<svg width="106" height="36" viewBox="0 0 106 36" fill="none" xmlns="http://www.w3.org/2000/svg">
<g clip-path="url(#clip0_1298_29343)">
<path d="M0.5 25.1993L5.43261 9.5673C6.08545 7.53622 6.84711 5.83157 7.79011 4.48961C8.69684 3.14765 9.89372 2.16838 11.3082 1.47927C12.7227 0.826423 14.4999 0.5 16.6398 0.5C19.5776 0.5 22.2978 1.58808 24.8004 3.76423L21.0646 8.29787C20.4481 7.64503 19.7589 7.10099 19.0336 6.66576C18.2719 6.2668 17.5102 6.04918 16.6761 6.04918C15.8056 6.04918 15.0802 6.19426 14.4999 6.52068C13.9196 6.84711 13.4481 7.35488 13.0491 8.08026C12.6502 8.80564 12.2512 9.82118 11.8885 11.1269L8.47922 21.79L14.1372 23.4221C16.3134 24.075 18.018 24.8004 19.2512 25.562C20.4843 26.3237 21.391 27.1941 21.8988 28.1734C22.4066 29.1527 22.6605 30.3133 22.6605 31.619V35.0283H16.0595V32.562C16.0595 31.5827 15.7693 30.7848 15.189 30.1682C14.6087 29.5516 13.7383 29.0801 12.6139 28.7537L0.536269 25.163L0.5 25.1993Z" fill="#355C8C"/>
<path d="M47.8306 21.7169C47.8306 24.2558 46.8876 26.2868 45.0379 27.8464C43.1881 29.3697 40.4679 30.1677 36.9498 30.1677C35.2452 30.1677 33.6131 29.95 31.9809 29.5511C30.3488 29.1521 28.8255 28.6081 27.4473 27.919V22.0071C29.3333 22.9501 31.0742 23.6029 32.6338 24.0382C34.1934 24.4371 35.5716 24.6547 36.7685 24.6547C38.5457 24.6547 39.7788 24.4009 40.4317 23.8931C41.0845 23.3853 41.4109 22.7325 41.4109 21.9708C41.4109 21.3905 41.3021 20.8827 41.0482 20.4112C40.7944 19.976 40.2866 19.5408 39.5249 19.0693C38.7633 18.6341 37.5664 18.1263 35.9343 17.5097C33.8307 16.7481 32.1986 16.0589 31.0379 15.3698C29.8411 14.6807 29.0069 13.8465 28.5354 12.8673C28.0276 11.888 27.81 10.546 27.81 8.87764C27.81 6.30253 28.753 4.30772 30.639 2.82069C32.525 1.36992 35.1364 0.644531 38.4006 0.644531C39.8151 0.644531 41.2659 0.825877 42.7166 1.1523C44.1674 1.515 45.727 2.02277 47.3591 2.67561L45.7995 8.00718C44.2037 7.31807 42.7892 6.8103 41.556 6.55641C40.3229 6.26626 39.1985 6.12118 38.1104 6.12118C36.6597 6.12118 35.6441 6.3388 35.0638 6.8103C34.4835 7.2818 34.1934 7.89836 34.1934 8.62375C34.1934 9.16778 34.3022 9.60301 34.5198 10.002C34.7374 10.3647 35.2089 10.7636 35.9343 11.1263C36.6597 11.489 37.784 11.9605 39.2711 12.4683C42.3177 13.4838 44.5301 14.717 45.8358 16.1677C47.1777 17.6185 47.8306 19.432 47.8306 21.6807V21.7169Z" fill="#355C8C"/>
<path d="M51.0586 25.1993L55.9912 9.56729C56.6441 7.53622 57.4057 5.83157 58.3487 4.48961C59.2555 3.14765 60.4524 2.16838 61.8669 1.47927C63.2814 0.826422 65.0585 0.5 67.1984 0.5C70.1362 0.5 72.8564 1.58807 75.359 3.76422L71.6233 8.29787C71.0067 7.64503 70.3176 7.10099 69.5922 6.66576C68.8305 6.2668 68.0689 6.04918 67.2347 6.04918C66.3642 6.04918 65.6388 6.19426 65.0585 6.52068C64.4782 6.8471 64.0067 7.35487 63.6078 8.08026C63.2088 8.80564 62.8099 9.82118 62.4472 11.1269L59.0379 21.79L64.6959 23.4221C66.872 24.075 68.5767 24.8004 69.8098 25.562C71.043 26.3237 71.9497 27.1941 72.4575 28.1734C72.9652 29.1527 73.2191 30.3133 73.2191 31.619V35.0283H66.6181V32.562C66.6181 31.5827 66.328 30.7848 65.7477 30.1682C65.1673 29.5516 64.2969 29.0801 63.1725 28.7537L51.0949 25.1631L51.0586 25.1993Z" fill="#355C8C"/>
<path d="M99.6955 29.7326H93.0945V20.8466H87.908C84.3537 20.8466 81.6335 19.9762 79.7837 18.199C77.934 16.4581 77.0273 13.9555 77.0273 10.6913C77.0273 8.66016 77.4988 6.88297 78.4055 5.35966C79.3122 3.83636 80.6542 2.67574 82.3589 1.84155C84.0635 1.00736 86.0583 0.608398 88.3795 0.608398C92.1878 0.608398 95.0168 1.58767 96.9028 3.5462C98.7888 5.50474 99.7318 8.55135 99.7318 12.7586V15.37H105.063V20.8466H99.7318V29.7326H99.6955ZM88.7785 15.37H93.1308V13.3389C93.1308 10.8363 92.7681 8.98658 92.0427 7.82597C91.3173 6.66535 90.0842 6.08505 88.3795 6.08505C86.965 6.08505 85.877 6.48401 85.079 7.24566C84.3174 8.00731 83.9184 9.16793 83.9184 10.6913C83.9184 12.2146 84.2811 13.4477 84.9702 14.2094C85.6594 14.971 86.965 15.37 88.8148 15.37H88.7785Z" fill="#355C8C"/>
</g>
<defs>
<clipPath id="clip0_1298_29343">
<rect width="105" height="35" fill="white" transform="translate(0.5 0.5)"/>
</clipPath>
</defs>
</svg>
